<mxfile host="app.diagrams.net" agent="Mozilla/5.0 (Windows NT 10.0; Win64; x64) AppleWebKit/537.36 (KHTML, like Gecko) Chrome/134.0.0.0 Safari/537.36" version="26.1.1">
  <diagram name="Page-1" id="y15ijetespWnFYnX3gGh">
    <mxGraphModel dx="1523" dy="862" grid="1" gridSize="10" guides="1" tooltips="1" connect="1" arrows="1" fold="1" page="1" pageScale="1" pageWidth="827" pageHeight="1169" math="0" shadow="0">
      <root>
        <mxCell id="0" />
        <mxCell id="1" parent="0" />
        <mxCell id="b1b992KmtusgH-RNf2uJ-1" value="Library Management System" style="shape=module;align=left;spacingLeft=20;align=center;verticalAlign=top;whiteSpace=wrap;html=1;" vertex="1" parent="1">
          <mxGeometry x="20" y="380" width="120" height="60" as="geometry" />
        </mxCell>
        <mxCell id="b1b992KmtusgH-RNf2uJ-53" style="edgeStyle=orthogonalEdgeStyle;rounded=0;orthogonalLoop=1;jettySize=auto;html=1;entryX=1;entryY=0.5;entryDx=0;entryDy=0;endArrow=none;" edge="1" parent="1" source="b1b992KmtusgH-RNf2uJ-2" target="b1b992KmtusgH-RNf2uJ-6">
          <mxGeometry relative="1" as="geometry">
            <mxPoint x="530" y="570" as="targetPoint" />
            <Array as="points">
              <mxPoint x="530" y="210" />
              <mxPoint x="530" y="570" />
            </Array>
          </mxGeometry>
        </mxCell>
        <mxCell id="b1b992KmtusgH-RNf2uJ-2" value="User" style="shape=module;align=left;spacingLeft=20;align=center;verticalAlign=top;whiteSpace=wrap;html=1;" vertex="1" parent="1">
          <mxGeometry x="340" y="180" width="120" height="60" as="geometry" />
        </mxCell>
        <mxCell id="b1b992KmtusgH-RNf2uJ-54" style="edgeStyle=orthogonalEdgeStyle;rounded=0;orthogonalLoop=1;jettySize=auto;html=1;endArrow=none;" edge="1" parent="1" source="b1b992KmtusgH-RNf2uJ-3">
          <mxGeometry relative="1" as="geometry">
            <mxPoint x="530" y="300" as="targetPoint" />
          </mxGeometry>
        </mxCell>
        <mxCell id="b1b992KmtusgH-RNf2uJ-3" value="Librarian" style="shape=module;align=left;spacingLeft=20;align=center;verticalAlign=top;whiteSpace=wrap;html=1;" vertex="1" parent="1">
          <mxGeometry x="340" y="270" width="120" height="60" as="geometry" />
        </mxCell>
        <mxCell id="b1b992KmtusgH-RNf2uJ-4" value="Book" style="shape=module;align=left;spacingLeft=20;align=center;verticalAlign=top;whiteSpace=wrap;html=1;" vertex="1" parent="1">
          <mxGeometry x="340" y="360" width="120" height="60" as="geometry" />
        </mxCell>
        <mxCell id="b1b992KmtusgH-RNf2uJ-5" value="Fine" style="shape=module;align=left;spacingLeft=20;align=center;verticalAlign=top;whiteSpace=wrap;html=1;" vertex="1" parent="1">
          <mxGeometry x="340" y="450" width="120" height="60" as="geometry" />
        </mxCell>
        <mxCell id="b1b992KmtusgH-RNf2uJ-6" value="Issue" style="shape=module;align=left;spacingLeft=20;align=center;verticalAlign=top;whiteSpace=wrap;html=1;" vertex="1" parent="1">
          <mxGeometry x="340" y="540" width="120" height="60" as="geometry" />
        </mxCell>
        <mxCell id="b1b992KmtusgH-RNf2uJ-13" style="edgeStyle=orthogonalEdgeStyle;rounded=0;orthogonalLoop=1;jettySize=auto;html=1;entryX=0;entryY=0;entryDx=0;entryDy=15;entryPerimeter=0;dashed=1;" edge="1" parent="1" source="b1b992KmtusgH-RNf2uJ-1" target="b1b992KmtusgH-RNf2uJ-2">
          <mxGeometry relative="1" as="geometry" />
        </mxCell>
        <mxCell id="b1b992KmtusgH-RNf2uJ-17" style="edgeStyle=orthogonalEdgeStyle;rounded=0;orthogonalLoop=1;jettySize=auto;html=1;entryX=0;entryY=0;entryDx=0;entryDy=15;entryPerimeter=0;dashed=1;" edge="1" parent="1" source="b1b992KmtusgH-RNf2uJ-1" target="b1b992KmtusgH-RNf2uJ-3">
          <mxGeometry relative="1" as="geometry" />
        </mxCell>
        <mxCell id="b1b992KmtusgH-RNf2uJ-18" style="edgeStyle=orthogonalEdgeStyle;rounded=0;orthogonalLoop=1;jettySize=auto;html=1;entryX=0;entryY=0;entryDx=0;entryDy=15;entryPerimeter=0;dashed=1;" edge="1" parent="1" source="b1b992KmtusgH-RNf2uJ-1" target="b1b992KmtusgH-RNf2uJ-4">
          <mxGeometry relative="1" as="geometry" />
        </mxCell>
        <mxCell id="b1b992KmtusgH-RNf2uJ-19" style="dashed=1;edgeStyle=orthogonalEdgeStyle;rounded=0;orthogonalLoop=1;jettySize=auto;html=1;entryX=0;entryY=0;entryDx=0;entryDy=15;entryPerimeter=0;" edge="1" parent="1" source="b1b992KmtusgH-RNf2uJ-1" target="b1b992KmtusgH-RNf2uJ-5">
          <mxGeometry relative="1" as="geometry" />
        </mxCell>
        <mxCell id="b1b992KmtusgH-RNf2uJ-20" style="dashed=1;edgeStyle=orthogonalEdgeStyle;rounded=0;orthogonalLoop=1;jettySize=auto;html=1;entryX=0;entryY=0;entryDx=0;entryDy=15;entryPerimeter=0;" edge="1" parent="1" source="b1b992KmtusgH-RNf2uJ-1" target="b1b992KmtusgH-RNf2uJ-6">
          <mxGeometry relative="1" as="geometry" />
        </mxCell>
        <mxCell id="b1b992KmtusgH-RNf2uJ-25" style="edgeStyle=orthogonalEdgeStyle;rounded=0;orthogonalLoop=1;jettySize=auto;html=1;entryX=0.5;entryY=1;entryDx=0;entryDy=0;endArrow=none;" edge="1" parent="1" source="b1b992KmtusgH-RNf2uJ-21" target="b1b992KmtusgH-RNf2uJ-1">
          <mxGeometry relative="1" as="geometry" />
        </mxCell>
        <mxCell id="b1b992KmtusgH-RNf2uJ-21" value="System Admin" style="ellipse;html=1;verticalLabelPosition=bottom;sketch=0;" vertex="1" parent="1">
          <mxGeometry x="70" y="500" width="20" height="20" as="geometry" />
        </mxCell>
        <mxCell id="b1b992KmtusgH-RNf2uJ-35" value="" style="group" vertex="1" connectable="0" parent="1">
          <mxGeometry x="280" y="210" width="10" height="10" as="geometry" />
        </mxCell>
        <mxCell id="b1b992KmtusgH-RNf2uJ-36" value="" style="group" vertex="1" connectable="0" parent="b1b992KmtusgH-RNf2uJ-35">
          <mxGeometry width="10" height="10" as="geometry" />
        </mxCell>
        <mxCell id="b1b992KmtusgH-RNf2uJ-27" style="edgeStyle=orthogonalEdgeStyle;rounded=0;orthogonalLoop=1;jettySize=auto;html=1;endArrow=none;entryX=0;entryY=0;entryDx=0;entryDy=35;entryPerimeter=0;" edge="1" parent="b1b992KmtusgH-RNf2uJ-36" source="b1b992KmtusgH-RNf2uJ-28" target="b1b992KmtusgH-RNf2uJ-2">
          <mxGeometry relative="1" as="geometry">
            <mxPoint x="50" y="5" as="targetPoint" />
          </mxGeometry>
        </mxCell>
        <mxCell id="b1b992KmtusgH-RNf2uJ-28" value="&lt;font style=&quot;font-size: 9px;&quot;&gt;Data Access&lt;/font&gt;" style="ellipse;html=1;verticalLabelPosition=bottom;sketch=0;" vertex="1" parent="b1b992KmtusgH-RNf2uJ-36">
          <mxGeometry width="10" height="10" as="geometry" />
        </mxCell>
        <mxCell id="b1b992KmtusgH-RNf2uJ-37" value="" style="group" vertex="1" connectable="0" parent="1">
          <mxGeometry x="280" y="300" width="10" height="10" as="geometry" />
        </mxCell>
        <mxCell id="b1b992KmtusgH-RNf2uJ-39" value="&lt;font style=&quot;font-size: 9px;&quot;&gt;Data Access&lt;/font&gt;" style="ellipse;html=1;verticalLabelPosition=bottom;sketch=0;" vertex="1" parent="b1b992KmtusgH-RNf2uJ-37">
          <mxGeometry width="10" height="10" as="geometry" />
        </mxCell>
        <mxCell id="b1b992KmtusgH-RNf2uJ-38" style="edgeStyle=orthogonalEdgeStyle;rounded=0;orthogonalLoop=1;jettySize=auto;html=1;endArrow=none;entryX=0;entryY=0;entryDx=0;entryDy=35;entryPerimeter=0;" edge="1" parent="1" source="b1b992KmtusgH-RNf2uJ-39" target="b1b992KmtusgH-RNf2uJ-3">
          <mxGeometry relative="1" as="geometry">
            <mxPoint x="330" y="305" as="targetPoint" />
          </mxGeometry>
        </mxCell>
        <mxCell id="b1b992KmtusgH-RNf2uJ-40" value="" style="group" vertex="1" connectable="0" parent="1">
          <mxGeometry x="280" y="390" width="10" height="10" as="geometry" />
        </mxCell>
        <mxCell id="b1b992KmtusgH-RNf2uJ-42" value="&lt;font style=&quot;font-size: 9px;&quot;&gt;Data Access&lt;/font&gt;" style="ellipse;html=1;verticalLabelPosition=bottom;sketch=0;" vertex="1" parent="b1b992KmtusgH-RNf2uJ-40">
          <mxGeometry width="10" height="10" as="geometry" />
        </mxCell>
        <mxCell id="b1b992KmtusgH-RNf2uJ-41" style="edgeStyle=orthogonalEdgeStyle;rounded=0;orthogonalLoop=1;jettySize=auto;html=1;endArrow=none;entryX=0;entryY=0;entryDx=0;entryDy=35;entryPerimeter=0;" edge="1" parent="1" source="b1b992KmtusgH-RNf2uJ-42" target="b1b992KmtusgH-RNf2uJ-4">
          <mxGeometry relative="1" as="geometry">
            <mxPoint x="330" y="395" as="targetPoint" />
          </mxGeometry>
        </mxCell>
        <mxCell id="b1b992KmtusgH-RNf2uJ-43" value="" style="group" vertex="1" connectable="0" parent="1">
          <mxGeometry x="280" y="480" width="10" height="10" as="geometry" />
        </mxCell>
        <mxCell id="b1b992KmtusgH-RNf2uJ-45" value="&lt;font style=&quot;font-size: 9px;&quot;&gt;Data Access&lt;/font&gt;" style="ellipse;html=1;verticalLabelPosition=bottom;sketch=0;" vertex="1" parent="b1b992KmtusgH-RNf2uJ-43">
          <mxGeometry width="10" height="10" as="geometry" />
        </mxCell>
        <mxCell id="b1b992KmtusgH-RNf2uJ-44" style="edgeStyle=orthogonalEdgeStyle;rounded=0;orthogonalLoop=1;jettySize=auto;html=1;endArrow=none;entryX=0;entryY=0;entryDx=0;entryDy=35;entryPerimeter=0;" edge="1" parent="1" source="b1b992KmtusgH-RNf2uJ-45" target="b1b992KmtusgH-RNf2uJ-5">
          <mxGeometry relative="1" as="geometry">
            <mxPoint x="330" y="485" as="targetPoint" />
          </mxGeometry>
        </mxCell>
        <mxCell id="b1b992KmtusgH-RNf2uJ-46" value="" style="group" vertex="1" connectable="0" parent="1">
          <mxGeometry x="280" y="570" width="10" height="10" as="geometry" />
        </mxCell>
        <mxCell id="b1b992KmtusgH-RNf2uJ-48" value="&lt;font style=&quot;font-size: 9px;&quot;&gt;Data Access&lt;/font&gt;" style="ellipse;html=1;verticalLabelPosition=bottom;sketch=0;" vertex="1" parent="b1b992KmtusgH-RNf2uJ-46">
          <mxGeometry width="10" height="10" as="geometry" />
        </mxCell>
        <mxCell id="b1b992KmtusgH-RNf2uJ-47" style="edgeStyle=orthogonalEdgeStyle;rounded=0;orthogonalLoop=1;jettySize=auto;html=1;endArrow=none;entryX=0;entryY=0;entryDx=0;entryDy=35;entryPerimeter=0;" edge="1" parent="1" source="b1b992KmtusgH-RNf2uJ-48" target="b1b992KmtusgH-RNf2uJ-6">
          <mxGeometry relative="1" as="geometry">
            <mxPoint x="330" y="575" as="targetPoint" />
          </mxGeometry>
        </mxCell>
        <mxCell id="b1b992KmtusgH-RNf2uJ-55" style="edgeStyle=orthogonalEdgeStyle;rounded=0;orthogonalLoop=1;jettySize=auto;html=1;endArrow=none;" edge="1" parent="1">
          <mxGeometry relative="1" as="geometry">
            <mxPoint x="530" y="390" as="targetPoint" />
            <mxPoint x="460" y="390" as="sourcePoint" />
          </mxGeometry>
        </mxCell>
        <mxCell id="b1b992KmtusgH-RNf2uJ-56" style="edgeStyle=orthogonalEdgeStyle;rounded=0;orthogonalLoop=1;jettySize=auto;html=1;endArrow=none;" edge="1" parent="1">
          <mxGeometry relative="1" as="geometry">
            <mxPoint x="530" y="480" as="targetPoint" />
            <mxPoint x="460" y="480" as="sourcePoint" />
          </mxGeometry>
        </mxCell>
        <mxCell id="b1b992KmtusgH-RNf2uJ-65" value="Security" style="shape=module;align=left;spacingLeft=20;align=center;verticalAlign=top;whiteSpace=wrap;html=1;" vertex="1" parent="1">
          <mxGeometry x="630" y="270" width="120" height="60" as="geometry" />
        </mxCell>
        <mxCell id="b1b992KmtusgH-RNf2uJ-62" value="" style="rounded=0;orthogonalLoop=1;jettySize=auto;html=1;endArrow=halfCircle;endFill=0;endSize=6;strokeWidth=1;sketch=0;" edge="1" parent="1" target="b1b992KmtusgH-RNf2uJ-64">
          <mxGeometry relative="1" as="geometry">
            <mxPoint x="530" y="305" as="sourcePoint" />
          </mxGeometry>
        </mxCell>
        <mxCell id="b1b992KmtusgH-RNf2uJ-63" value="" style="rounded=0;orthogonalLoop=1;jettySize=auto;html=1;endArrow=oval;endFill=0;sketch=0;sourcePerimeterSpacing=0;targetPerimeterSpacing=0;endSize=10;exitX=0;exitY=0;exitDx=0;exitDy=35;exitPerimeter=0;" edge="1" parent="1" target="b1b992KmtusgH-RNf2uJ-64" source="b1b992KmtusgH-RNf2uJ-65">
          <mxGeometry relative="1" as="geometry">
            <mxPoint x="630" y="308" as="sourcePoint" />
          </mxGeometry>
        </mxCell>
        <mxCell id="b1b992KmtusgH-RNf2uJ-64" value="" style="ellipse;whiteSpace=wrap;html=1;align=center;aspect=fixed;fillColor=none;strokeColor=none;resizable=0;perimeter=centerPerimeter;rotatable=0;allowArrows=0;points=[];outlineConnect=1;" vertex="1" parent="1">
          <mxGeometry x="585" y="300" width="10" height="10" as="geometry" />
        </mxCell>
        <mxCell id="b1b992KmtusgH-RNf2uJ-71" value="Persistance" style="shape=module;align=left;spacingLeft=20;align=center;verticalAlign=top;whiteSpace=wrap;html=1;" vertex="1" parent="1">
          <mxGeometry x="630" y="400" width="120" height="60" as="geometry" />
        </mxCell>
        <mxCell id="b1b992KmtusgH-RNf2uJ-72" value="" style="rounded=0;orthogonalLoop=1;jettySize=auto;html=1;endArrow=halfCircle;endFill=0;endSize=6;strokeWidth=1;sketch=0;" edge="1" parent="1" target="b1b992KmtusgH-RNf2uJ-74">
          <mxGeometry relative="1" as="geometry">
            <mxPoint x="530" y="415" as="sourcePoint" />
          </mxGeometry>
        </mxCell>
        <mxCell id="b1b992KmtusgH-RNf2uJ-73" value="" style="rounded=0;orthogonalLoop=1;jettySize=auto;html=1;endArrow=oval;endFill=0;sketch=0;sourcePerimeterSpacing=0;targetPerimeterSpacing=0;endSize=10;exitX=0;exitY=0;exitDx=0;exitDy=15;exitPerimeter=0;" edge="1" parent="1" source="b1b992KmtusgH-RNf2uJ-71" target="b1b992KmtusgH-RNf2uJ-74">
          <mxGeometry relative="1" as="geometry">
            <mxPoint x="630" y="415" as="sourcePoint" />
          </mxGeometry>
        </mxCell>
        <mxCell id="b1b992KmtusgH-RNf2uJ-74" value="" style="ellipse;whiteSpace=wrap;html=1;align=center;aspect=fixed;fillColor=none;strokeColor=none;resizable=0;perimeter=centerPerimeter;rotatable=0;allowArrows=0;points=[];outlineConnect=1;" vertex="1" parent="1">
          <mxGeometry x="585" y="410" width="10" height="10" as="geometry" />
        </mxCell>
        <mxCell id="b1b992KmtusgH-RNf2uJ-75" value="" style="rounded=0;orthogonalLoop=1;jettySize=auto;html=1;endArrow=halfCircle;endFill=0;endSize=6;strokeWidth=1;sketch=0;" edge="1" parent="1" target="b1b992KmtusgH-RNf2uJ-77">
          <mxGeometry relative="1" as="geometry">
            <mxPoint x="530" y="435" as="sourcePoint" />
          </mxGeometry>
        </mxCell>
        <mxCell id="b1b992KmtusgH-RNf2uJ-76" value="" style="rounded=0;orthogonalLoop=1;jettySize=auto;html=1;endArrow=oval;endFill=0;sketch=0;sourcePerimeterSpacing=0;targetPerimeterSpacing=0;endSize=10;exitX=0;exitY=0;exitDx=0;exitDy=35;exitPerimeter=0;" edge="1" parent="1" source="b1b992KmtusgH-RNf2uJ-71" target="b1b992KmtusgH-RNf2uJ-77">
          <mxGeometry relative="1" as="geometry">
            <mxPoint x="630" y="438" as="sourcePoint" />
          </mxGeometry>
        </mxCell>
        <mxCell id="b1b992KmtusgH-RNf2uJ-77" value="" style="ellipse;whiteSpace=wrap;html=1;align=center;aspect=fixed;fillColor=none;strokeColor=none;resizable=0;perimeter=centerPerimeter;rotatable=0;allowArrows=0;points=[];outlineConnect=1;" vertex="1" parent="1">
          <mxGeometry x="585" y="430" width="10" height="10" as="geometry" />
        </mxCell>
        <mxCell id="b1b992KmtusgH-RNf2uJ-78" value="" style="group" vertex="1" connectable="0" parent="1">
          <mxGeometry x="530" y="280" width="65" height="10" as="geometry" />
        </mxCell>
        <mxCell id="b1b992KmtusgH-RNf2uJ-50" value="" style="rounded=0;orthogonalLoop=1;jettySize=auto;html=1;endArrow=halfCircle;endFill=0;endSize=6;strokeWidth=1;sketch=0;" edge="1" parent="b1b992KmtusgH-RNf2uJ-78">
          <mxGeometry relative="1" as="geometry">
            <mxPoint y="5" as="sourcePoint" />
            <mxPoint x="60" y="5" as="targetPoint" />
          </mxGeometry>
        </mxCell>
        <mxCell id="b1b992KmtusgH-RNf2uJ-51" value="" style="rounded=0;orthogonalLoop=1;jettySize=auto;html=1;endArrow=oval;endFill=0;sketch=0;sourcePerimeterSpacing=0;targetPerimeterSpacing=0;endSize=10;exitX=0;exitY=0;exitDx=0;exitDy=15;exitPerimeter=0;" edge="1" parent="b1b992KmtusgH-RNf2uJ-78" source="b1b992KmtusgH-RNf2uJ-65">
          <mxGeometry relative="1" as="geometry">
            <mxPoint x="100" y="5" as="sourcePoint" />
            <mxPoint x="60" y="5" as="targetPoint" />
          </mxGeometry>
        </mxCell>
        <mxCell id="b1b992KmtusgH-RNf2uJ-79" value="&lt;font style=&quot;font-size: 9px;&quot;&gt;Encryption&lt;/font&gt;" style="text;html=1;align=center;verticalAlign=middle;resizable=0;points=[];autosize=1;strokeColor=none;fillColor=none;" vertex="1" parent="1">
          <mxGeometry x="555" y="250" width="70" height="30" as="geometry" />
        </mxCell>
        <mxCell id="b1b992KmtusgH-RNf2uJ-80" value="&lt;font style=&quot;font-size: 9px;&quot;&gt;Encryption&lt;/font&gt;" style="text;html=1;align=center;verticalAlign=middle;resizable=0;points=[];autosize=1;strokeColor=none;fillColor=none;" vertex="1" parent="1">
          <mxGeometry x="555" y="380" width="70" height="30" as="geometry" />
        </mxCell>
        <mxCell id="b1b992KmtusgH-RNf2uJ-81" value="&lt;font style=&quot;font-size: 9px;&quot;&gt;Data Access&lt;/font&gt;" style="text;html=1;align=center;verticalAlign=middle;resizable=0;points=[];autosize=1;strokeColor=none;fillColor=none;" vertex="1" parent="1">
          <mxGeometry x="555" y="310" width="70" height="30" as="geometry" />
        </mxCell>
        <mxCell id="b1b992KmtusgH-RNf2uJ-82" value="&lt;font style=&quot;font-size: 9px;&quot;&gt;Data Access&lt;/font&gt;" style="text;html=1;align=center;verticalAlign=middle;resizable=0;points=[];autosize=1;strokeColor=none;fillColor=none;" vertex="1" parent="1">
          <mxGeometry x="555" y="440" width="70" height="30" as="geometry" />
        </mxCell>
        <mxCell id="b1b992KmtusgH-RNf2uJ-83" value="" style="rounded=0;orthogonalLoop=1;jettySize=auto;html=1;endArrow=halfCircle;endFill=0;endSize=6;strokeWidth=1;sketch=0;exitX=1;exitY=0.5;exitDx=0;exitDy=0;" edge="1" target="b1b992KmtusgH-RNf2uJ-85" parent="1" source="b1b992KmtusgH-RNf2uJ-71">
          <mxGeometry relative="1" as="geometry">
            <mxPoint x="770" y="440" as="sourcePoint" />
            <Array as="points">
              <mxPoint x="800" y="430" />
              <mxPoint x="800" y="535" />
            </Array>
          </mxGeometry>
        </mxCell>
        <mxCell id="b1b992KmtusgH-RNf2uJ-84" value="" style="rounded=0;orthogonalLoop=1;jettySize=auto;html=1;endArrow=oval;endFill=0;sketch=0;sourcePerimeterSpacing=0;targetPerimeterSpacing=0;endSize=10;exitX=1;exitY=0.5;exitDx=0;exitDy=0;" edge="1" target="b1b992KmtusgH-RNf2uJ-85" parent="1" source="b1b992KmtusgH-RNf2uJ-87">
          <mxGeometry relative="1" as="geometry">
            <mxPoint x="710" y="535" as="sourcePoint" />
          </mxGeometry>
        </mxCell>
        <mxCell id="b1b992KmtusgH-RNf2uJ-85" value="" style="ellipse;whiteSpace=wrap;html=1;align=center;aspect=fixed;fillColor=none;strokeColor=none;resizable=0;perimeter=centerPerimeter;rotatable=0;allowArrows=0;points=[];outlineConnect=1;" vertex="1" parent="1">
          <mxGeometry x="750" y="530" width="10" height="10" as="geometry" />
        </mxCell>
        <mxCell id="b1b992KmtusgH-RNf2uJ-87" value="Database" style="shape=module;align=left;spacingLeft=20;align=center;verticalAlign=top;whiteSpace=wrap;html=1;" vertex="1" parent="1">
          <mxGeometry x="585" y="505" width="120" height="60" as="geometry" />
        </mxCell>
        <mxCell id="b1b992KmtusgH-RNf2uJ-88" value="&lt;font style=&quot;font-size: 9px;&quot;&gt;Database Controller&lt;/font&gt;" style="text;html=1;align=center;verticalAlign=middle;resizable=0;points=[];autosize=1;strokeColor=none;fillColor=none;" vertex="1" parent="1">
          <mxGeometry x="705" y="535" width="100" height="30" as="geometry" />
        </mxCell>
      </root>
    </mxGraphModel>
  </diagram>
</mxfile>
